<svg width="25" height="24" viewBox="0 0 25 24" fill="none" xmlns="http://www.w3.org/2000/svg">
<path d="M16.1133 14.255H15.3233L15.0433 13.985C16.0233 12.845 16.6133 11.365 16.6133 9.755C16.6133 6.165 13.7033 3.255 10.1133 3.255C6.52328 3.255 3.61328 6.165 3.61328 9.755C3.61328 13.345 6.52328 16.255 10.1133 16.255C11.7233 16.255 13.2033 15.665 14.3433 14.685L14.6133 14.965V15.755L19.6133 20.745L21.1033 19.255L16.1133 14.255ZM10.1133 14.255C7.62328 14.255 5.61328 12.245 5.61328 9.755C5.61328 7.26501 7.62328 5.255 10.1133 5.255C12.6033 5.255 14.6133 7.26501 14.6133 9.755C14.6133 12.245 12.6033 14.255 10.1133 14.255Z" fill="#8C8C8C"/>
</svg>
